<svg width="399" height="391" viewBox="0 0 399 391" fill="none" xmlns="http://www.w3.org/2000/svg">
<path d="M176.235 390.133C271.107 390.133 348.016 354.072 348.016 309.587C348.016 265.103 271.107 229.041 176.235 229.041C81.3628 229.041 4.45386 265.103 4.45386 309.587C4.45386 354.072 81.3628 390.133 176.235 390.133Z" fill="#9896FD"/>
<path d="M234.955 360.549L106.728 286.51C105.6 285.86 104.663 284.924 104.011 283.797C103.36 282.67 103.017 281.391 103.017 280.089C103.017 278.788 103.36 277.509 104.011 276.382C104.663 275.254 105.6 274.319 106.728 273.669L119.377 265.692C121.56 264.435 124.036 263.773 126.556 263.773C129.076 263.773 131.551 264.435 133.735 265.692L261.98 339.74C263.108 340.39 264.045 341.325 264.696 342.452C265.348 343.58 265.691 344.858 265.691 346.16C265.691 347.462 265.348 348.741 264.696 349.868C264.045 350.995 263.108 351.931 261.98 352.581L249.331 360.549C247.146 361.813 244.667 362.479 242.143 362.479C239.619 362.479 237.14 361.813 234.955 360.549V360.549Z" fill="#E0E0E0"/>
<path d="M32.0984 304.121C47.4666 304.121 59.9251 296.967 59.9251 288.142C59.9251 279.316 47.4666 272.162 32.0984 272.162C16.7302 272.162 4.27173 279.316 4.27173 288.142C4.27173 296.967 16.7302 304.121 32.0984 304.121Z" fill="#E6E6E6"/>
<path d="M272.539 307.782L284.744 314.8C284.744 314.8 278.511 295.211 281.832 275.466C283.087 268.004 285.781 264.299 286.723 262.302C287.664 260.306 294.961 247.971 288.466 242.322C281.972 236.673 266.864 248.032 267.683 278.43C268.056 288.38 269.688 298.243 272.539 307.782V307.782Z" fill="#4D64FF"/>
<path opacity="0.5" d="M272.539 307.782L284.744 314.8C284.744 314.8 278.511 295.211 281.832 275.466C283.087 268.004 285.781 264.299 286.723 262.302C287.664 260.306 294.961 247.971 288.466 242.322C281.972 236.673 266.864 248.032 267.683 278.43C268.056 288.38 269.688 298.243 272.539 307.782V307.782Z" fill="black"/>
<path d="M278.214 311.479C278.126 311.481 278.038 311.455 277.965 311.405C277.892 311.355 277.836 311.283 277.805 311.2C277.761 311.069 273.097 298.324 273.245 277.837C273.394 257.351 284.16 246.227 284.264 246.123C284.305 246.082 284.353 246.049 284.406 246.027C284.459 246.005 284.516 245.994 284.574 245.994C284.631 245.994 284.688 246.005 284.742 246.027C284.795 246.049 284.843 246.082 284.883 246.123C284.924 246.163 284.957 246.211 284.979 246.264C285.001 246.318 285.012 246.375 285.012 246.432C285.012 246.49 285.001 246.547 284.979 246.6C284.957 246.653 284.924 246.701 284.883 246.742C284.779 246.846 274.265 257.639 274.117 277.846C273.969 298.053 278.572 310.781 278.624 310.903C278.663 311.012 278.658 311.132 278.609 311.236C278.56 311.341 278.471 311.422 278.363 311.461C278.315 311.476 278.265 311.482 278.214 311.479V311.479Z" fill="white"/>
<path d="M277.63 310.781L294.316 320.371C296.054 321.398 298.116 321.733 300.091 321.308C302.065 320.883 303.807 319.73 304.969 318.078C306.073 316.359 306.539 314.308 306.285 312.281C305.483 303.615 301.717 301.619 306.329 297.757C310.94 293.895 312.143 293.625 311.882 289.911C311.62 286.197 309.083 284.576 307.88 283.111C306.677 281.647 303.347 278.578 305.614 274.045C307.88 269.512 310.975 265.127 306.285 263.122C303.487 261.919 298.823 263.523 295.754 266.853C292.686 270.183 290.157 272.581 287.22 273.383C284.282 274.185 278.162 274.315 278.424 279.38C278.685 284.445 280.028 286.18 278.825 288.438C276.558 292.657 266.698 295.055 277.63 310.781Z" fill="#4D64FF"/>
<path d="M285.877 315.942C285.769 315.939 285.665 315.896 285.585 315.823C285.505 315.749 285.454 315.649 285.441 315.541C285.441 315.245 282.878 285.326 303.452 265.415C303.537 265.345 303.645 265.309 303.755 265.316C303.865 265.322 303.968 265.37 304.044 265.449C304.12 265.529 304.163 265.634 304.165 265.744C304.167 265.854 304.127 265.961 304.053 266.042C283.776 285.666 286.287 315.166 286.313 315.463C286.323 315.577 286.287 315.69 286.214 315.778C286.14 315.867 286.035 315.922 285.921 315.933L285.877 315.942Z" fill="white"/>
<path d="M289.181 290.19C289.071 290.19 288.965 290.149 288.885 290.075C288.804 290.001 288.754 289.899 288.745 289.789C288.563 287.47 287.91 285.213 286.826 283.156C285.742 281.098 284.251 279.282 282.442 277.82C282.395 277.787 282.355 277.745 282.324 277.696C282.293 277.647 282.273 277.593 282.263 277.536C282.253 277.48 282.255 277.422 282.268 277.365C282.28 277.309 282.304 277.256 282.338 277.21C282.37 277.163 282.411 277.123 282.459 277.092C282.507 277.061 282.56 277.04 282.616 277.031C282.673 277.021 282.73 277.023 282.785 277.035C282.841 277.048 282.893 277.072 282.939 277.105C284.866 278.633 286.455 280.545 287.605 282.72C288.754 284.894 289.439 287.284 289.617 289.737C289.627 289.853 289.59 289.969 289.515 290.059C289.44 290.149 289.332 290.205 289.216 290.216L289.181 290.19Z" fill="white"/>
<path d="M287.76 295.325C287.655 295.326 287.553 295.289 287.472 295.22C287.386 295.143 287.333 295.035 287.325 294.92C287.317 294.804 287.354 294.69 287.429 294.601C287.638 294.357 292.79 288.673 304.864 290.181C304.978 290.197 305.082 290.257 305.152 290.348C305.223 290.44 305.254 290.555 305.239 290.67C305.224 290.785 305.164 290.889 305.073 290.961C304.982 291.032 304.866 291.066 304.751 291.053C293.156 289.597 288.126 295.124 288.074 295.177C288.034 295.221 287.986 295.257 287.932 295.283C287.878 295.308 287.82 295.322 287.76 295.325V295.325Z" fill="white"/>
<path d="M236.111 349.878L124.755 285.583C116.896 281.046 110.526 268.874 110.526 258.398V19.951C110.526 9.47479 116.896 4.66281 124.755 9.19933L236.111 73.494C243.97 78.0305 250.341 90.2025 250.341 100.679V339.126C250.341 349.594 243.97 354.414 236.111 349.878Z" fill="#455A64"/>
<path d="M248.938 65.9961L137.573 1.70138C134.216 -0.235468 131.134 -0.459282 128.698 0.72865C128.4 0.878008 128.112 1.0477 127.837 1.23653L115.355 8.49325C117.869 6.98682 121.157 7.09872 124.764 9.18191L236.12 73.4766C243.979 78.0131 250.349 90.1851 250.349 100.661V339.109C250.349 344.652 248.567 348.578 245.727 350.437L258.045 343.266C261.187 341.596 263.21 337.507 263.21 331.645V93.198C263.21 82.7046 256.797 70.5326 248.938 65.9961Z" fill="#37474F"/>
<path d="M250.341 100.661V339.109C250.341 344.652 248.559 348.578 245.718 350.437L258.045 343.266C261.187 341.596 263.21 337.507 263.21 331.645V93.198L250.384 100.644L250.341 100.661Z" fill="#263238"/>
<path d="M263.167 111.697L250.341 119.1V124.885L263.167 117.473V111.697Z" fill="#37474F"/>
<path d="M257.546 150.167C256.401 150.83 255.471 150.124 255.471 148.6V136.161C255.483 135.384 255.677 134.62 256.037 133.931C256.397 133.242 256.914 132.646 257.546 132.193V132.193C258.691 131.53 259.62 132.193 259.62 133.76V146.199C259.609 146.976 259.415 147.74 259.055 148.429C258.694 149.119 258.178 149.714 257.546 150.167V150.167Z" fill="#37474F"/>
<path d="M255.462 148.635V136.161C255.474 135.384 255.668 134.62 256.028 133.931C256.388 133.242 256.905 132.646 257.537 132.193C257.726 132.061 257.946 131.98 258.175 131.959C258.405 131.938 258.636 131.977 258.846 132.073L257.287 131.272C257.074 131.169 256.838 131.125 256.602 131.143C256.366 131.161 256.139 131.241 255.945 131.375C255.312 131.829 254.794 132.424 254.433 133.113C254.071 133.802 253.875 134.566 253.861 135.344V147.774C253.829 148.088 253.877 148.405 254 148.696C254.124 148.986 254.319 149.241 254.567 149.435V149.435L256.194 150.296C255.935 150.11 255.731 149.857 255.602 149.565C255.474 149.273 255.425 148.952 255.462 148.635V148.635Z" fill="#455A64"/>
<path d="M257.546 180.27C256.401 180.933 255.471 180.27 255.471 178.703V166.264C255.483 165.487 255.677 164.723 256.038 164.034C256.398 163.345 256.914 162.75 257.546 162.296V162.296C258.691 161.633 259.62 162.296 259.62 163.871V176.302C259.61 177.079 259.417 177.844 259.057 178.533C258.696 179.223 258.179 179.818 257.546 180.27V180.27Z" fill="#37474F"/>
<path d="M255.462 178.704V166.265C255.475 165.487 255.669 164.724 256.029 164.035C256.389 163.345 256.906 162.75 257.537 162.296C257.727 162.167 257.947 162.088 258.176 162.066C258.405 162.045 258.635 162.083 258.845 162.176V162.176L257.287 161.367C257.075 161.26 256.838 161.213 256.602 161.231C256.365 161.249 256.138 161.332 255.945 161.47C255.311 161.922 254.792 162.517 254.43 163.206C254.068 163.895 253.873 164.66 253.861 165.438V177.903C253.828 178.217 253.876 178.535 253.999 178.825C254.123 179.116 254.318 179.37 254.567 179.564V179.564L256.194 180.425C255.925 180.234 255.713 179.972 255.584 179.668C255.455 179.364 255.413 179.03 255.462 178.704Z" fill="#455A64"/>
<path d="M232.22 80.1825L122.793 16.9811C122.336 16.7183 121.819 16.5796 121.292 16.5786C120.765 16.5776 120.247 16.7145 119.789 16.9755C119.332 17.2365 118.95 17.6127 118.683 18.0667C118.415 18.5207 118.271 19.0367 118.265 19.5635V258.398C118.265 266.369 123.92 276.157 130.824 280.142L237.566 341.803C238.072 342.094 238.646 342.247 239.23 342.247C239.814 342.246 240.388 342.092 240.894 341.8C241.399 341.508 241.819 341.088 242.112 340.583C242.404 340.077 242.558 339.503 242.559 338.919V98.1134C242.602 91.5367 237.936 83.4708 232.22 80.1825Z" fill="#4D64FF"/>
<path opacity="0.9" d="M232.22 80.1825L122.793 16.9811C122.336 16.7183 121.819 16.5796 121.292 16.5786C120.765 16.5776 120.247 16.7145 119.789 16.9755C119.332 17.2365 118.95 17.6127 118.683 18.0667C118.415 18.5207 118.271 19.0367 118.265 19.5635V258.398C118.265 266.369 123.92 276.157 130.824 280.142L237.566 341.803C238.072 342.094 238.646 342.247 239.23 342.247C239.814 342.246 240.388 342.092 240.894 341.8C241.399 341.508 241.819 341.088 242.112 340.583C242.404 340.077 242.558 339.503 242.559 338.919V98.1134C242.602 91.5367 237.936 83.4708 232.22 80.1825Z" fill="white"/>
<path d="M155.521 33.4829L157.217 40.6191L193.492 61.537L199.759 58.1971L155.521 33.4829Z" fill="#455A64"/>
<path d="M166.187 40.378C166.187 41.5659 165.326 42.0393 164.327 41.454C163.791 41.0981 163.346 40.6214 163.028 40.0623C162.709 39.5032 162.527 38.8771 162.494 38.2345C162.494 37.0552 163.355 36.5731 164.353 37.1671C164.889 37.5212 165.334 37.9962 165.653 38.554C165.971 39.1117 166.154 39.7365 166.187 40.378V40.378Z" fill="#263238"/>
<path d="M190.626 55.4856C190.427 55.484 190.232 55.4337 190.057 55.3392L171.533 45.0094C171.271 44.8558 171.08 44.606 171 44.3134C170.92 44.0208 170.958 43.7085 171.105 43.4433C171.252 43.1781 171.497 42.981 171.788 42.894C172.078 42.807 172.392 42.8371 172.66 42.9779L191.194 53.3077C191.419 53.4329 191.596 53.6295 191.698 53.8665C191.799 54.1034 191.819 54.3674 191.754 54.6168C191.689 54.8662 191.542 55.0869 191.338 55.2442C191.134 55.4015 190.883 55.4864 190.626 55.4856V55.4856Z" fill="#263238"/>
<path d="M141.214 66.6847C140.087 66.0305 139.269 66.5986 139.269 68.0362C139.269 68.7551 139.446 69.4629 139.786 70.0966C140.125 70.7303 140.616 71.2704 141.214 71.6689C141.535 71.8634 141.902 71.9663 142.277 71.9663C142.652 71.9663 143.02 71.8634 143.341 71.6689L145.14 74.9228C144.507 75.272 143.789 75.4384 143.067 75.4035C142.345 75.3685 141.647 75.1335 141.051 74.7248C139.589 73.8305 138.37 72.5898 137.503 71.1124C136.635 69.635 136.145 67.9664 136.075 66.2543C136.075 63.0607 138.219 61.9502 141.171 63.6719C142.839 64.7456 144.205 66.227 145.14 67.976L143.341 69.4049C142.897 68.3191 142.161 67.3775 141.214 66.6847Z" fill="#4D64FF"/>
<path d="M155.495 77.471C155.495 80.6904 153.317 81.7751 150.33 80.0534C148.827 79.155 147.569 77.8991 146.668 76.3973C145.767 74.8956 145.251 73.1945 145.166 71.4452C145.166 68.2257 147.343 67.1411 150.33 68.8627C151.837 69.7571 153.098 71.012 154 72.5146C154.902 74.0172 155.415 75.7204 155.495 77.471V77.471ZM148.359 73.3648C148.374 74.1039 148.565 74.8289 148.915 75.4799C149.265 76.131 149.765 76.6895 150.373 77.1094C151.441 77.7292 152.302 77.1094 152.302 75.646C152.299 74.9236 152.122 74.2124 151.786 73.5727C151.451 72.9329 150.966 72.3833 150.373 71.9703C149.289 71.3419 148.359 71.8756 148.359 73.3648Z" fill="#4D64FF"/>
<path d="M158.965 74.0532L162.683 81.8006V76.2225L165.498 77.8495V88.7044L162.916 87.2066L159.214 79.5281V85.0718L156.382 83.4362V72.5554L158.965 74.0532Z" fill="#4D64FF"/>
<path d="M174.7 83.135V85.9757L172.015 84.4262V92.4491L168.907 90.65V82.6271L166.239 81.0863V78.2542L174.7 83.135Z" fill="#4D64FF"/>
<path d="M180.76 95.9614L177.231 93.9213L176.749 95.1781L173.564 93.3359L177.532 84.7708L180.726 86.6129L184.548 99.6802L181.234 97.7691L180.76 95.9614ZM179.994 92.9485L179.03 89.2384L178.04 91.8209L179.994 92.9485Z" fill="#4D64FF"/>
<path d="M189.481 94.5495C188.353 93.9039 187.535 94.4634 187.535 95.9096C187.537 96.6282 187.715 97.3354 188.054 97.9689C188.393 98.6024 188.883 99.1427 189.481 99.5422C189.803 99.7348 190.172 99.8365 190.548 99.8365C190.924 99.8365 191.293 99.7348 191.615 99.5422L193.415 102.796C192.779 103.141 192.061 103.305 191.338 103.271C190.616 103.236 189.917 103.003 189.317 102.598C187.854 101.703 186.635 100.461 185.767 98.982C184.899 97.5029 184.409 95.8326 184.342 94.1191C184.342 90.9254 186.494 89.815 189.438 91.5366C191.103 92.6155 192.47 94.0955 193.415 95.8407L191.615 97.2611C191.162 96.1809 190.424 95.2438 189.481 94.5495Z" fill="#4D64FF"/>
<path d="M201.902 98.8451V101.677L199.217 100.128V108.176L196.109 106.377V98.3544L193.44 96.8136V93.9814L201.902 98.8451Z" fill="#4D64FF"/>
<path d="M211.087 112.17C211.853 112.609 212.439 112.265 212.439 111.189V104.931L215.555 106.721V112.98C215.555 115.863 213.833 116.724 211.079 115.149C209.752 114.412 208.636 113.346 207.839 112.055C207.041 110.763 206.589 109.288 206.525 107.772V101.513L209.641 103.313V109.571C209.653 110.089 209.791 110.596 210.043 111.049C210.295 111.502 210.653 111.887 211.087 112.17V112.17Z" fill="#4D64FF"/>
<path d="M220.573 112.205C220.22 112.007 219.997 111.999 219.997 112.326C219.997 113.686 224.86 115.648 224.86 119.582C224.86 121.993 223.027 122.001 220.909 120.779C219.048 119.638 217.444 118.123 216.2 116.329L217.354 114.297C218.3 115.763 219.515 117.036 220.935 118.05C221.391 118.317 221.684 118.317 221.684 117.93C221.684 116.518 216.812 114.641 216.812 110.828C216.812 108.659 218.396 108.245 220.84 109.623C222.415 110.575 223.801 111.81 224.929 113.264L223.801 115.347C222.87 114.161 221.784 113.104 220.573 112.205V112.205Z" fill="#4D64FF"/>
<path d="M225.859 180.631V302.205C225.861 303.58 225.501 304.931 224.815 306.123C224.128 307.314 223.14 308.304 221.95 308.992C220.76 309.681 219.409 310.044 218.034 310.044C216.659 310.045 215.308 309.683 214.117 308.995L148.639 271.188L137.035 264.495C133.039 262.185 129.719 258.866 127.408 254.87C125.097 250.874 123.875 246.342 123.865 241.726V120.143C123.862 118.768 124.223 117.417 124.909 116.225C125.595 115.034 126.583 114.044 127.773 113.356C128.964 112.667 130.314 112.304 131.689 112.304C133.064 112.303 134.415 112.665 135.606 113.353L212.708 157.863C216.706 160.17 220.026 163.488 222.334 167.485C224.643 171.482 225.858 176.016 225.859 180.631V180.631Z" fill="#4D64FF"/>
<path opacity="0.5" d="M225.859 180.631V302.205C225.861 303.58 225.501 304.931 224.815 306.123C224.128 307.314 223.14 308.304 221.95 308.992C220.76 309.681 219.409 310.044 218.034 310.044C216.659 310.045 215.308 309.683 214.117 308.995L148.639 271.188L137.035 264.495C133.039 262.185 129.719 258.866 127.408 254.87C125.097 250.874 123.875 246.342 123.865 241.726V120.143C123.862 118.768 124.223 117.417 124.909 116.225C125.595 115.034 126.583 114.044 127.773 113.356C128.964 112.667 130.314 112.304 131.689 112.304C133.064 112.303 134.415 112.665 135.606 113.353L212.708 157.863C216.706 160.17 220.026 163.488 222.334 167.485C224.643 171.482 225.858 176.016 225.859 180.631V180.631Z" fill="white"/>
<path d="M188.14 252.568C188.14 252.568 200.4 272.9 191.545 295.825L148.61 271.188L188.14 252.568Z" fill="#263238"/>
<path d="M207.692 161.216C208.62 153.68 203.263 146.819 195.727 145.892C188.192 144.964 181.331 150.32 180.403 157.856C179.475 165.391 184.832 172.252 192.367 173.18C199.903 174.108 206.764 168.752 207.692 161.216Z" fill="#263238"/>
<path d="M194.118 120.975C194.118 120.975 198.335 114.126 199.627 114.625C200.918 115.124 198.785 121.65 198.785 121.65C198.785 121.65 205.165 122.981 203.981 124.585C202.797 126.19 194.999 125.808 194.999 125.808L194.118 120.975Z" fill="#263238"/>
<path d="M197.053 138.626C194.118 160.681 175.527 160.681 175.527 160.681L136.585 143.538C136.585 143.538 133.649 140.965 132.749 135.055C132.404 132.634 132.404 130.177 132.749 127.756C132.749 127.756 132.749 127.707 132.749 127.687C133.992 118.411 140.929 108.441 156.036 105.378C159.347 104.71 162.717 104.382 166.095 104.4C167.729 104.394 169.362 104.476 170.987 104.644C182.729 105.799 190.957 111.278 194.881 119.801C195.764 121.724 196.42 123.744 196.838 125.818C197.634 130.045 197.707 134.376 197.053 138.626Z" fill="#263238"/>
<path d="M103.561 181.287C103.561 181.287 89.7359 180.808 84.4131 194.281C84.4131 194.281 90.2838 198.244 97.9843 194.281C105.685 190.318 103.561 181.287 103.561 181.287Z" fill="#4D64FF"/>
<path opacity="0.5" d="M103.561 181.287C103.561 181.287 89.7359 180.808 84.4131 194.281C84.4131 194.281 90.2838 198.244 97.9843 194.281C105.685 190.318 103.561 181.287 103.561 181.287Z" fill="black"/>
<path d="M103.17 187.774C103.17 187.774 99.2563 170.769 97.1918 170.563C95.1272 170.358 94.726 175.749 94.8924 178.792L90.0001 168.264C89.8449 167.937 89.6243 167.645 89.352 167.406C89.0797 167.167 88.7614 166.987 88.4167 166.876C88.072 166.765 87.7082 166.726 87.3478 166.761C86.9874 166.796 86.638 166.905 86.3211 167.08C81.4288 169.771 72.8477 177.95 90.9394 198.175L103.17 187.774Z" fill="#945959"/>
<path d="M153.267 176.013L150.332 175.631C147.374 175.239 144.364 175.642 141.613 176.797C138.862 177.953 136.468 179.82 134.677 182.207L117.211 205.455L103.513 181.287C103.513 181.287 101.869 197.725 84.3643 194.281L103.16 225.914C104.35 227.917 106.006 229.603 107.987 230.828C109.968 232.053 112.215 232.782 114.538 232.952C116.861 233.122 119.191 232.728 121.329 231.805C123.468 230.881 125.351 229.454 126.82 227.646L142.905 207.872L153.267 176.013Z" fill="#4D64FF"/>
<path d="M190.547 230.269C186.633 240.19 186.202 242.128 188.59 247.088C190.252 250.752 191.563 254.566 192.503 258.478C192.503 258.478 174.363 278.81 148.541 271.197L136.937 264.505C134.523 263.113 132.35 261.342 130.499 259.26L134.031 232.92C134.209 231.534 134.068 230.125 133.62 228.801L129.911 217.93C128.102 212.621 127.833 206.907 129.135 201.451C130.437 195.995 133.257 191.019 137.269 187.099L149.735 174.917L182.474 179.105L187.367 180.504C190.569 181.431 193.33 183.481 195.142 186.28C196.954 189.079 197.695 192.437 197.229 195.739C195.625 207.285 193.002 224.036 190.547 230.269Z" fill="#4D64FF"/>
<path opacity="0.5" d="M190.547 230.269C186.633 240.19 186.202 242.128 188.59 247.088C190.252 250.752 191.563 254.566 192.503 258.478C192.503 258.478 174.363 278.81 148.541 271.197L136.937 264.505C134.523 263.113 132.35 261.342 130.499 259.26L134.031 232.92C134.209 231.534 134.068 230.125 133.62 228.801L129.911 217.93C128.102 212.621 127.833 206.907 129.135 201.451C130.437 195.995 133.257 191.019 137.269 187.099L149.735 174.917L182.474 179.105L187.367 180.504C190.569 181.431 193.33 183.481 195.142 186.28C196.954 189.079 197.695 192.437 197.229 195.739C195.625 207.285 193.002 224.036 190.547 230.269Z" fill="black"/>
<path d="M170.801 200.631L164.245 195.044C163.551 194.45 162.714 194.047 161.817 193.876C160.919 193.704 159.993 193.77 159.128 194.066L151.203 196.795L150.136 192.353C149.97 191.662 149.665 191.012 149.24 190.442C148.816 189.872 148.28 189.393 147.666 189.036C147.051 188.678 146.371 188.449 145.665 188.362C144.96 188.274 144.244 188.331 143.561 188.528L140.126 189.506L145.938 178.371C147.836 174.745 150.759 171.757 154.343 169.78L156.623 168.528L175.459 169.506C175.459 169.506 182.474 172.442 182.474 179.046L170.801 200.572" fill="#4D64FF"/>
<path d="M175.537 177.853L156.653 192.569V145.71H175.537V177.853Z" fill="#945959"/>
<path d="M156.946 173.988L151.203 196.835L175.459 177.853L156.946 173.988Z" fill="#945959"/>
<path d="M156.653 170.592C160.852 169.033 164.69 166.637 167.935 163.549C171.179 160.46 173.762 156.745 175.527 152.628V145.71H156.643L156.653 170.592Z" fill="#703838"/>
<path d="M160.723 110.985C153.561 110.985 138.336 114.977 136.575 133.724C134.814 152.471 136.516 166.992 146.183 168.401C155.85 169.809 178.316 162.794 181.329 138.528C184.343 114.262 167.699 110.985 160.723 110.985Z" fill="#945959"/>
<path d="M149.451 141.659V152.706L142.974 150.72L149.451 141.659Z" fill="#703838"/>
<path d="M156.653 145.818C157.895 145.818 158.903 144.81 158.903 143.567C158.903 142.324 157.895 141.317 156.653 141.317C155.41 141.317 154.402 142.324 154.402 143.567C154.402 144.81 155.41 145.818 156.653 145.818Z" fill="#263238"/>
<path d="M144.089 142.002C144.087 142.447 143.954 142.881 143.705 143.25C143.457 143.618 143.105 143.905 142.693 144.074C142.282 144.243 141.83 144.286 141.394 144.198C140.958 144.11 140.558 143.895 140.244 143.58C139.93 143.265 139.717 142.864 139.631 142.428C139.545 141.991 139.59 141.539 139.761 141.129C139.931 140.718 140.22 140.367 140.59 140.12C140.959 139.873 141.394 139.742 141.839 139.742C142.135 139.742 142.429 139.8 142.702 139.914C142.976 140.028 143.224 140.194 143.434 140.404C143.643 140.614 143.808 140.864 143.921 141.138C144.033 141.412 144.091 141.706 144.089 142.002V142.002Z" fill="#263238"/>
<path d="M139.089 137.305L143.492 134.693C143.492 134.693 141.809 132.941 140.126 133.988C138.444 135.035 139.089 137.305 139.089 137.305Z" fill="#263238"/>
<path d="M146.408 157.187C148.552 157.344 150.687 156.772 152.465 155.563C152.465 155.563 152.886 158.763 150.205 159.369C147.524 159.976 146.408 157.187 146.408 157.187Z" fill="#703838"/>
<path d="M142.563 117.365C142.563 117.365 145.254 143.245 180.449 144.057C180.449 144.057 191.084 118.333 170.067 109.977C149.05 101.621 142.563 117.365 142.563 117.365Z" fill="#263238"/>
<path d="M190.811 140.182L186.486 137.677C184.842 136.699 182.572 136.836 180.057 138.284C175.067 141.16 171.016 148.176 171.016 153.939C171.016 156.826 171.995 158.831 173.678 159.81L177.924 162.256L178.169 162.393L178.316 162.481C179.92 163.264 182.063 163.078 184.421 161.718C189.411 158.783 193.462 151.826 193.462 146.063C193.433 143.147 192.425 141.131 190.811 140.182Z" fill="#4D64FF"/>
<path d="M190.776 154.92C194.305 148.808 194.305 142.201 190.776 140.164C187.248 138.127 181.527 141.43 177.998 147.542C174.469 153.654 174.469 160.26 177.998 162.297C181.526 164.335 187.248 161.032 190.776 154.92Z" fill="#4D64FF"/>
<path opacity="0.5" d="M190.776 154.92C194.305 148.808 194.305 142.201 190.776 140.164C187.248 138.127 181.527 141.43 177.998 147.542C174.469 153.654 174.469 160.26 177.998 162.297C181.526 164.335 187.248 161.032 190.776 154.92Z" fill="black"/>
<path d="M192.543 145.612L189.607 143.9C188.492 143.235 186.936 143.323 185.214 144.311C183.415 145.487 181.918 147.069 180.844 148.93C179.769 150.791 179.148 152.879 179.03 155.025C179.03 156.982 179.725 158.381 180.85 159.027L183.785 160.7C183.837 160.738 183.893 160.771 183.952 160.798L184.05 160.857C184.738 161.118 185.479 161.206 186.209 161.114C186.939 161.022 187.636 160.752 188.237 160.328C190.035 159.154 191.531 157.573 192.605 155.713C193.68 153.854 194.302 151.768 194.421 149.624C194.343 147.638 193.658 146.258 192.543 145.612Z" fill="#4D64FF"/>
<path d="M194.343 149.605C194.223 151.749 193.601 153.835 192.527 155.694C191.453 157.553 189.957 159.134 188.159 160.309C184.734 162.266 181.965 160.681 181.965 156.737C182.081 154.591 182.703 152.503 183.779 150.643C184.856 148.783 186.356 147.203 188.159 146.033C191.574 144.057 194.343 145.652 194.343 149.605Z" fill="#4D64FF"/>
<path opacity="0.3" d="M194.343 149.605C194.223 151.749 193.601 153.835 192.527 155.694C191.453 157.553 189.957 159.134 188.159 160.309C184.734 162.266 181.965 160.681 181.965 156.737C182.081 154.591 182.703 152.503 183.779 150.643C184.856 148.783 186.356 147.203 188.159 146.033C191.574 144.057 194.343 145.652 194.343 149.605Z" fill="black"/>
<path d="M177.376 105.936C174.571 103.769 171.136 102.577 167.592 102.541H166.721C163.132 102.502 159.549 102.83 156.026 103.519C156.672 103.519 157.318 103.519 157.983 103.519H156.026V105.339H157.846C164.118 105.552 170.062 108.196 174.42 112.712C178.779 117.227 181.211 123.26 181.202 129.536V137.237C181.202 137.541 181.266 137.842 181.389 138.12C181.513 138.399 181.693 138.648 181.919 138.852C182.145 139.055 182.412 139.21 182.701 139.304C182.991 139.398 183.297 139.431 183.599 139.399H183.824L185.781 138.793C185.651 138.834 185.516 138.86 185.38 138.871C185.964 138.792 186.497 138.501 186.88 138.053C187.262 137.606 187.467 137.033 187.454 136.444V129.301C187.435 116.376 181.848 109.429 177.376 105.936Z" fill="#4D64FF"/>
<path d="M165.058 167.862C164.251 167.863 163.453 167.689 162.719 167.354L156.604 164.526C156.508 164.492 156.421 164.438 156.347 164.368C156.273 164.299 156.214 164.214 156.175 164.121C156.135 164.027 156.116 163.926 156.117 163.825C156.118 163.723 156.141 163.623 156.183 163.531C156.225 163.438 156.286 163.355 156.362 163.288C156.438 163.22 156.527 163.169 156.623 163.137C156.72 163.106 156.822 163.095 156.923 163.105C157.024 163.115 157.122 163.145 157.21 163.195L163.326 166.023C164.106 166.386 164.979 166.496 165.825 166.338C166.67 166.18 167.445 165.762 168.042 165.142L173.913 159.076C174.05 158.939 174.237 158.861 174.431 158.861C174.626 158.861 174.812 158.939 174.95 159.076C175.085 159.215 175.161 159.401 175.161 159.595C175.161 159.788 175.085 159.974 174.95 160.113L169.079 166.18C168.556 166.716 167.931 167.142 167.24 167.431C166.549 167.72 165.807 167.867 165.058 167.862V167.862Z" fill="#4D64FF"/>
<path opacity="0.5" d="M165.058 167.862C164.251 167.863 163.453 167.689 162.719 167.354L156.604 164.526C156.508 164.492 156.421 164.438 156.347 164.368C156.273 164.299 156.214 164.214 156.175 164.121C156.135 164.027 156.116 163.926 156.117 163.825C156.118 163.723 156.141 163.623 156.183 163.531C156.225 163.438 156.286 163.355 156.362 163.288C156.438 163.22 156.527 163.169 156.623 163.137C156.72 163.106 156.822 163.095 156.923 163.105C157.024 163.115 157.122 163.145 157.21 163.195L163.326 166.023C164.106 166.386 164.979 166.496 165.825 166.338C166.67 166.18 167.445 165.762 168.042 165.142L173.913 159.076C174.05 158.939 174.237 158.861 174.431 158.861C174.626 158.861 174.812 158.939 174.95 159.076C175.085 159.215 175.161 159.401 175.161 159.595C175.161 159.788 175.085 159.974 174.95 160.113L169.079 166.18C168.556 166.716 167.931 167.142 167.24 167.431C166.549 167.72 165.807 167.867 165.058 167.862V167.862Z" fill="black"/>
<path d="M158.208 162.471C158.208 163.036 158.041 163.589 157.727 164.058C157.413 164.528 156.967 164.894 156.445 165.111C155.923 165.327 155.348 165.384 154.794 165.273C154.24 165.163 153.731 164.891 153.331 164.491C152.931 164.092 152.659 163.583 152.549 163.028C152.439 162.474 152.495 161.9 152.712 161.378C152.928 160.856 153.294 160.409 153.764 160.096C154.234 159.782 154.786 159.614 155.351 159.614C156.109 159.614 156.836 159.915 157.372 160.451C157.907 160.987 158.208 161.713 158.208 162.471V162.471Z" fill="#4D64FF"/>
<path opacity="0.5" d="M158.208 162.471C158.208 163.036 158.041 163.589 157.727 164.058C157.413 164.528 156.967 164.894 156.445 165.111C155.923 165.327 155.348 165.384 154.794 165.273C154.24 165.163 153.731 164.891 153.331 164.491C152.931 164.092 152.659 163.583 152.549 163.028C152.439 162.474 152.495 161.9 152.712 161.378C152.928 160.856 153.294 160.409 153.764 160.096C154.234 159.782 154.786 159.614 155.351 159.614C156.109 159.614 156.836 159.915 157.372 160.451C157.907 160.987 158.208 161.713 158.208 162.471V162.471Z" fill="black"/>
<path d="M187.435 129.301V136.444C187.447 137.033 187.243 137.605 186.86 138.053C186.478 138.5 185.944 138.792 185.361 138.871C185.038 138.905 184.712 138.871 184.404 138.771C184.096 138.671 183.812 138.508 183.571 138.291C183.33 138.074 183.137 137.809 183.006 137.512C182.874 137.216 182.806 136.896 182.807 136.571V129.301C182.812 125.832 182.116 122.397 180.759 119.203C179.403 116.01 177.414 113.124 174.913 110.719C172.412 108.314 169.451 106.44 166.207 105.209C162.962 103.979 159.503 103.417 156.036 103.558C159.558 102.869 163.142 102.541 166.731 102.58H167.582C171.126 102.616 174.561 103.808 177.367 105.975C181.848 109.429 187.435 116.376 187.435 129.301Z" fill="#4D64FF"/>
<path opacity="0.5" d="M187.435 129.301V136.444C187.447 137.033 187.243 137.605 186.86 138.053C186.478 138.5 185.944 138.792 185.361 138.871C185.038 138.905 184.712 138.871 184.404 138.771C184.096 138.671 183.812 138.508 183.571 138.291C183.33 138.074 183.137 137.809 183.006 137.512C182.874 137.216 182.806 136.896 182.807 136.571V129.301C182.812 125.832 182.116 122.397 180.759 119.203C179.403 116.01 177.414 113.124 174.913 110.719C172.412 108.314 169.451 106.44 166.207 105.209C162.962 103.979 159.503 103.417 156.036 103.558C159.558 102.869 163.142 102.541 166.731 102.58H167.582C171.126 102.616 174.561 103.808 177.367 105.975C181.848 109.429 187.435 116.376 187.435 129.301Z" fill="black"/>
<path d="M176.437 263.908C176.437 263.908 171.701 276.951 188.629 282.822C188.629 282.822 194.157 274.7 188.629 268.057C183.1 261.413 176.437 263.908 176.437 263.908Z" fill="#4D64FF"/>
<path opacity="0.7" d="M176.437 263.908C176.437 263.908 171.701 276.951 188.629 282.822C188.629 282.822 194.157 274.7 188.629 268.057C183.1 261.413 176.437 263.908 176.437 263.908Z" fill="black"/>
<path d="M182.376 264.505C182.376 264.505 165.84 270.562 165.928 272.91C166.017 275.258 172.954 273.653 172.954 273.653L170.42 275.317C167.751 277.058 165.684 279.58 164.5 282.538V282.538C164.242 283.19 164.233 283.915 164.475 284.574C164.716 285.232 165.192 285.779 165.811 286.109L172.093 289.436C172.447 289.624 172.836 289.739 173.236 289.775C173.636 289.81 174.039 289.765 174.422 289.641C174.804 289.518 175.157 289.32 175.462 289.058C175.766 288.795 176.014 288.475 176.192 288.115V288.115C176.543 287.423 177.027 286.808 177.616 286.304C178.205 285.8 178.889 285.418 179.627 285.18C183.042 284.045 189.411 280.777 191.965 271.834L182.376 264.505Z" fill="#945959"/>
<path d="M187.337 180.485C187.337 180.485 178.531 185.377 183.208 200.23C187.885 215.083 196.662 238.126 196.662 238.126L176.437 263.908C178.598 264.169 180.679 264.882 182.546 266.001C184.412 267.121 186.021 268.621 187.269 270.405C188.463 272.219 189.21 274.29 189.446 276.449C189.683 278.608 189.402 280.792 188.629 282.822L213.736 250.532C216.058 247.548 217.599 244.033 218.221 240.303C218.843 236.574 218.526 232.749 217.297 229.173L206.534 197.745C205.219 193.906 203.032 190.423 200.147 187.57C197.261 184.716 193.754 182.569 189.901 181.297L187.337 180.485Z" fill="#4D64FF"/>
<path d="M46.7439 119.517L12.0739 99.466C11.6749 99.1894 11.2133 99.0167 10.7308 98.9634C10.2483 98.9102 9.76012 98.978 9.31043 99.1608V99.1608C9.21565 99.2046 9.12517 99.2571 9.04018 99.3178L1.49943 103.738H1.55174C0.601515 104.278 0 105.533 0 107.329V145.896C0 149.156 1.9789 152.949 4.42856 154.361L39.0986 174.411C39.5385 174.73 40.0621 174.912 40.6045 174.935C41.1469 174.958 41.6842 174.822 42.1497 174.542C42.1262 174.552 42.1052 174.567 42.0887 174.586L49.5771 170.227C50.5535 169.704 51.1725 168.431 51.1725 166.609V127.981C51.1725 124.721 49.2284 120.929 46.7439 119.517Z" fill="#4D64FF"/>
<path d="M49.9346 123.169C49.2332 121.677 48.1279 120.412 46.744 119.517L12.074 99.466C11.675 99.1894 11.2134 99.0167 10.7309 98.9634C10.2484 98.9102 9.7602 98.978 9.31051 99.1608V99.1608C9.21573 99.2046 9.12525 99.2571 9.04026 99.3178L1.49951 103.738C1.96079 103.502 2.47802 103.397 2.99463 103.436C3.51124 103.474 4.00733 103.654 4.42864 103.956L39.0986 124.006C40.5296 124.942 41.6638 126.266 42.3677 127.824L49.9346 123.169Z" fill="#4D64FF"/>
<path d="M43.527 171.021C43.527 172.764 42.9691 173.976 42.0886 174.508L49.5771 170.149C50.5534 169.626 51.1724 168.353 51.1724 166.531V127.982C51.1355 126.304 50.7119 124.657 49.9345 123.169L42.3676 127.825C43.0941 129.268 43.4902 130.855 43.527 132.471V171.021Z" fill="#4D64FF"/>
<path opacity="0.3" d="M49.9346 123.169C49.2332 121.677 48.1279 120.412 46.744 119.517L12.074 99.466C11.675 99.1894 11.2134 99.0167 10.7309 98.9634C10.2484 98.9102 9.7602 98.978 9.31051 99.1608V99.1608C9.21573 99.2046 9.12525 99.2571 9.04026 99.3178L1.49951 103.738C1.96079 103.502 2.47802 103.397 2.99463 103.436C3.51124 103.474 4.00733 103.654 4.42864 103.956L39.0986 124.006C40.5296 124.942 41.6638 126.266 42.3677 127.824L49.9346 123.169Z" fill="black"/>
<path opacity="0.6" d="M43.527 171.021C43.527 172.764 42.9691 173.976 42.0886 174.508L49.5771 170.149C50.5534 169.626 51.1724 168.353 51.1724 166.531V127.982C51.1355 126.304 50.7119 124.657 49.9345 123.169L42.3676 127.825C43.0941 129.268 43.4902 130.855 43.527 132.471V171.021Z" fill="black"/>
<path d="M33.3625 143.516C33.3625 148.511 31.3835 150.211 28.4196 148.494C27.6019 148.028 26.8869 147.402 26.3176 146.653C25.7483 145.904 25.3365 145.048 25.1069 144.135C24.2351 145.207 22.8839 145.277 20.9834 144.179C17.8625 142.374 15.4041 138.076 15.4041 133.901C15.4041 129.725 17.8364 128.286 20.9834 130.1C22.5804 131.041 23.8703 132.425 24.6971 134.084V132.436L27.9837 134.336V143.368C27.9347 143.843 28.0169 144.323 28.2213 144.755C28.4257 145.187 28.7445 145.554 29.1431 145.818C30.2503 146.463 30.9302 145.373 30.9302 142.139C30.9302 136.481 27.3037 130.483 21.9424 127.389C16.581 124.294 12.9632 126.447 12.9632 132.27C13.0334 135.36 13.8849 138.382 15.4382 141.055C16.9915 143.727 19.1961 145.962 21.8465 147.552C23.2855 148.439 24.9197 148.96 26.6063 149.069L27.3822 152.077C25.4183 151.918 23.5205 151.294 21.8465 150.255C14.8724 146.219 10.2607 138.094 10.2607 130.736C10.2607 123.378 14.9159 120.711 21.9424 124.773C28.7334 128.687 33.3625 136.525 33.3625 143.516ZM24.7494 139.323C24.7664 138.218 24.4967 137.127 23.9665 136.156C23.4364 135.186 22.6639 134.37 21.7244 133.787C19.9809 132.767 18.7343 133.482 18.7343 135.853C18.7119 136.961 18.9752 138.055 19.499 139.031C20.0228 140.006 20.7892 140.831 21.7244 141.424C23.4679 142.409 24.7494 141.773 24.7494 139.323Z" fill="#4D64FF"/>
<g opacity="0.9">
<path d="M33.3625 143.516C33.3625 148.511 31.3835 150.211 28.4196 148.494C27.6019 148.028 26.8869 147.402 26.3176 146.653C25.7483 145.904 25.3365 145.048 25.1069 144.135C24.2351 145.207 22.8839 145.277 20.9834 144.179C17.8625 142.374 15.4041 138.076 15.4041 133.901C15.4041 129.725 17.8364 128.286 20.9834 130.1C22.5804 131.041 23.8703 132.425 24.6971 134.084V132.436L27.9837 134.336V143.368C27.9347 143.843 28.0169 144.323 28.2213 144.755C28.4257 145.187 28.7445 145.554 29.1431 145.818C30.2503 146.463 30.9302 145.373 30.9302 142.139C30.9302 136.481 27.3037 130.483 21.9424 127.389C16.581 124.294 12.9632 126.447 12.9632 132.27C13.0334 135.36 13.8849 138.382 15.4382 141.055C16.9915 143.727 19.1961 145.962 21.8465 147.552C23.2855 148.439 24.9197 148.96 26.6063 149.069L27.3822 152.077C25.4183 151.918 23.5205 151.294 21.8465 150.255C14.8724 146.219 10.2607 138.094 10.2607 130.736C10.2607 123.378 14.9159 120.711 21.9424 124.773C28.7334 128.687 33.3625 136.525 33.3625 143.516ZM24.7494 139.323C24.7664 138.218 24.4967 137.127 23.9665 136.156C23.4364 135.186 22.6639 134.37 21.7244 133.787C19.9809 132.767 18.7343 133.482 18.7343 135.853C18.7119 136.961 18.9752 138.055 19.499 139.031C20.0228 140.006 20.7892 140.831 21.7244 141.424C23.4679 142.409 24.7494 141.773 24.7494 139.323Z" fill="white"/>
</g>
<path d="M46.7439 188.194L12.0739 168.143C11.6755 167.865 11.2133 167.692 10.7302 167.64C10.2471 167.589 9.75876 167.66 9.31043 167.847V167.847C9.21565 167.891 9.12517 167.943 9.04018 168.004L1.49943 172.424H1.55174C0.601515 172.964 0 174.22 0 176.007V214.556C0 217.825 1.9789 221.609 4.42856 223.021L39.0986 243.071C39.5375 243.392 40.0614 243.575 40.6044 243.598C41.1473 243.621 41.685 243.484 42.1497 243.202L42.0887 243.254L49.5771 238.852C50.5535 238.338 51.1725 237.108 51.1725 235.234V196.65C51.1725 193.39 49.2284 189.606 46.7439 188.194Z" fill="#4D64FF"/>
<path d="M49.9346 191.847C49.2356 190.353 48.1298 189.087 46.744 188.194L12.074 168.143C11.6756 167.865 11.2134 167.692 10.7303 167.64C10.2472 167.589 9.75884 167.66 9.31051 167.847V167.847C9.21573 167.891 9.12525 167.943 9.04026 168.004L1.49951 172.424C1.95974 172.186 2.4767 172.079 2.9935 172.116C3.51031 172.153 4.00691 172.332 4.42864 172.633L39.0986 192.683C40.5319 193.62 41.6664 194.948 42.3677 196.51V196.51L49.9346 191.847Z" fill="#4D64FF"/>
<path d="M43.527 239.689C43.527 241.432 42.9691 242.644 42.0886 243.219L49.5771 238.817C50.5534 238.303 51.1724 237.073 51.1724 235.199V196.65C51.1354 194.975 50.7118 193.331 49.9345 191.846L42.3676 196.502C43.094 197.942 43.49 199.527 43.527 201.139V239.689Z" fill="#4D64FF"/>
<path opacity="0.3" d="M49.9346 191.847C49.2356 190.353 48.1298 189.087 46.744 188.194L12.074 168.143C11.6756 167.865 11.2134 167.692 10.7303 167.64C10.2472 167.589 9.75884 167.66 9.31051 167.847V167.847C9.21573 167.891 9.12525 167.943 9.04026 168.004L1.49951 172.424C1.95974 172.186 2.4767 172.079 2.9935 172.116C3.51031 172.153 4.00691 172.332 4.42864 172.633L39.0986 192.683C40.5319 193.62 41.6664 194.948 42.3677 196.51V196.51L49.9346 191.847Z" fill="black"/>
<path opacity="0.6" d="M43.527 239.689C43.527 241.432 42.9691 242.644 42.0886 243.219L49.5771 238.817C50.5534 238.303 51.1724 237.073 51.1724 235.199V196.65C51.1354 194.975 50.7118 193.331 49.9345 191.846L42.3676 196.502C43.094 197.942 43.49 199.527 43.527 201.139V239.689Z" fill="black"/>
<path d="M17.8885 205.429L9.52832 191.846V210.249L17.8885 205.429Z" fill="#4D64FF"/>
<path d="M25.656 209.343L33.9988 223.788V205.411L25.656 209.343Z" fill="#4D64FF"/>
<path d="M10.7925 191.228L19.3793 205.176C19.4157 205.207 19.4479 205.242 19.4752 205.281C19.4828 205.315 19.4828 205.351 19.4752 205.385L22.0295 209.535L24.1915 208.515C24.2251 208.478 24.2632 208.446 24.3048 208.419C24.39 208.369 24.4854 208.339 24.5838 208.332L33.3014 204.243L10.7925 191.228Z" fill="#4D64FF"/>
<path d="M24.392 209.936L22.0557 211.034C21.9656 211.076 21.8673 211.097 21.768 211.095C21.6476 211.097 21.529 211.067 21.4236 211.009C21.3182 210.951 21.2296 210.867 21.1664 210.764L18.6122 206.615L10.2258 211.462L32.7958 224.486L24.392 209.936Z" fill="#4D64FF"/>
<g opacity="0.9">
<path d="M17.8885 205.429L9.52832 191.847V210.25L17.8885 205.429Z" fill="white"/>
<path d="M25.656 209.343L33.9988 223.788V205.411L25.656 209.343Z" fill="white"/>
<path d="M10.7925 191.228L19.3793 205.176C19.4157 205.207 19.4479 205.242 19.4752 205.281C19.4828 205.315 19.4828 205.351 19.4752 205.385L22.0295 209.535L24.1915 208.515C24.2251 208.478 24.2632 208.446 24.3048 208.419C24.39 208.369 24.4854 208.339 24.5838 208.332L33.3014 204.243L10.7925 191.228Z" fill="white"/>
<path d="M24.392 209.936L22.0557 211.034C21.9656 211.076 21.8673 211.097 21.768 211.095C21.6476 211.097 21.529 211.067 21.4236 211.009C21.3182 210.951 21.2296 210.867 21.1664 210.764L18.6122 206.615L10.2258 211.462L32.7958 224.486L24.392 209.936Z" fill="white"/>
</g>
<path d="M46.7439 50.8738L12.0739 30.8233C11.6755 30.5452 11.2133 30.3722 10.7302 30.3204C10.2471 30.2686 9.75876 30.3396 9.31043 30.5269V30.5269C9.21565 30.5706 9.12517 30.6232 9.04018 30.6838L1.49943 35.1036H1.55174C0.601515 35.6354 0 36.8994 0 38.6865V77.2359C0 80.4963 1.9789 84.2885 4.42856 85.7007L39.0986 105.751C39.5375 106.072 40.0614 106.255 40.6044 106.278C41.1473 106.301 41.685 106.164 42.1497 105.882L42.0887 105.926L49.5771 101.567C50.5535 101.052 51.1725 99.8233 51.1725 97.949V59.3037C51.1725 56.0433 49.2284 52.2512 46.7439 50.8738Z" fill="#4D64FF"/>
<path d="M49.9346 54.5003C49.2358 53.0046 48.1301 51.7358 46.744 50.8389L12.074 30.8233C11.6756 30.5452 11.2134 30.3722 10.7303 30.3204C10.2472 30.2686 9.75884 30.3396 9.31051 30.5269V30.5269C9.21573 30.5706 9.12525 30.6232 9.04026 30.6838L1.49951 35.1036C1.95974 34.8656 2.4767 34.7592 2.9935 34.7961C3.51031 34.8331 4.00691 35.0118 4.42864 35.3128L39.0986 55.3634C40.5319 56.3002 41.6664 57.6284 42.3677 59.1904V59.1904L49.9346 54.5003Z" fill="#4D64FF"/>
<path d="M43.527 102.308C43.527 104.051 42.9691 105.263 42.0886 105.795L49.5771 101.436C50.5534 100.922 51.1724 99.6924 51.1724 97.8181V59.3037C51.1354 57.6285 50.7118 55.9846 49.9345 54.5002L42.3676 59.1555C43.094 60.596 43.49 62.1803 43.527 63.7932V102.308Z" fill="#4D64FF"/>
<path opacity="0.3" d="M49.9346 54.5003C49.2358 53.0046 48.1301 51.7358 46.744 50.8389L12.074 30.8233C11.6756 30.5452 11.2134 30.3722 10.7303 30.3204C10.2472 30.2686 9.75884 30.3396 9.31051 30.5269V30.5269C9.21573 30.5706 9.12525 30.6232 9.04026 30.6838L1.49951 35.1036C1.95974 34.8656 2.4767 34.7592 2.9935 34.7961C3.51031 34.8331 4.00691 35.0118 4.42864 35.3128L39.0986 55.3634C40.5319 56.3002 41.6664 57.6284 42.3677 59.1904V59.1904L49.9346 54.5003Z" fill="black"/>
<path opacity="0.6" d="M43.527 102.308C43.527 104.051 42.9691 105.263 42.0886 105.795L49.5771 101.436C50.5534 100.922 51.1724 99.6924 51.1724 97.8181V59.3037C51.1354 57.6285 50.7118 55.9846 49.9345 54.5002L42.3676 59.1555C43.094 60.596 43.49 62.1803 43.527 63.7932V102.308Z" fill="black"/>
<path d="M32.1855 85.7444C30.8517 83.5476 29.5092 81.3856 28.1754 79.1713C27.9639 78.7519 27.6681 78.3806 27.3066 78.0806C26.9452 77.7806 26.5257 77.5584 26.0745 77.4278C25.4294 77.297 24.7843 77.1488 24.1217 76.957C23.8858 76.8587 23.6873 76.6877 23.5551 76.4689C21.3725 72.7335 19.6374 68.7541 18.3855 64.6129C18.3589 64.5244 18.3513 64.4312 18.3634 64.3395C18.3754 64.2479 18.4067 64.1598 18.4553 64.0811C18.865 63.6714 19.327 63.2965 19.7455 62.9304C20.1639 62.5642 20.3819 61.7186 20.0767 60.6202C19.4316 58.2926 18.8127 55.965 18.1676 53.6461C18.0428 52.9872 17.7466 52.3728 17.3089 51.8648C16.8713 51.3567 16.3075 50.9729 15.6743 50.7519C14.2685 50.361 12.7761 50.4158 11.4027 50.9088C10.8709 51.1093 10.592 51.5887 10.5833 52.4169C10.8099 54.0122 10.9581 55.5901 11.2632 57.2116C13.4136 68.9049 18.586 79.6566 26.7806 89.4668C26.9945 89.7922 27.2819 90.0626 27.6196 90.2565C27.9573 90.4503 28.3358 90.562 28.7246 90.5827C30.0813 90.5504 31.3847 90.0482 32.4122 89.1617C33.1881 88.4643 33.1096 87.2264 32.1855 85.7444Z" fill="#4D64FF"/>
<path d="M32.0807 73.8623C31.8984 71.3548 31.2073 68.9107 30.0495 66.679C29.1852 64.9356 28.0851 63.3193 26.7804 61.8756C26.4404 61.492 26.1528 61.3699 25.9784 61.6576C25.8041 61.9453 25.9784 62.355 26.3097 62.7299L26.6497 63.1222C29.0592 65.9036 30.5778 69.3446 31.0085 72.9993C31.0042 73.2658 31.0305 73.532 31.0869 73.7926C31.1964 74.0924 31.3723 74.3636 31.6013 74.5859C31.7843 74.7166 31.9936 74.5859 32.1418 74.5859C32.0895 74.2284 32.0982 74.0454 32.0807 73.8623Z" fill="#4D64FF"/>
<path d="M24.1827 66.7051C25.2774 67.9092 25.9426 69.442 26.0744 71.064C26.1318 71.3106 26.2228 71.5482 26.3447 71.7701C26.8764 72.206 27.138 72.0578 27.138 71.5086C26.9516 69.4289 26.0915 67.4669 24.6883 65.9206C24.3571 65.5806 24.0868 65.476 23.9299 65.7636C23.8734 65.9279 23.8673 66.1053 23.9124 66.273C23.9574 66.4408 24.0516 66.5913 24.1827 66.7051Z" fill="#4D64FF"/>
<g opacity="0.9">
<path d="M32.1855 85.7444C30.8517 83.5476 29.5092 81.3856 28.1754 79.1713C27.9639 78.7519 27.6681 78.3806 27.3066 78.0806C26.9452 77.7806 26.5257 77.5584 26.0745 77.4278C25.4294 77.297 24.7843 77.1488 24.1217 76.957C23.8858 76.8587 23.6873 76.6877 23.5551 76.4689C21.3725 72.7335 19.6374 68.7541 18.3855 64.6129C18.3589 64.5244 18.3513 64.4312 18.3634 64.3395C18.3754 64.2479 18.4067 64.1598 18.4553 64.0811C18.865 63.6714 19.327 63.2965 19.7455 62.9304C20.1639 62.5642 20.3819 61.7186 20.0767 60.6202C19.4316 58.2926 18.8127 55.965 18.1676 53.6461C18.0428 52.9872 17.7466 52.3728 17.3089 51.8648C16.8713 51.3567 16.3075 50.9729 15.6743 50.7519C14.2685 50.361 12.7761 50.4158 11.4027 50.9088C10.8709 51.1093 10.592 51.5887 10.5833 52.4169C10.8099 54.0122 10.9581 55.5901 11.2632 57.2116C13.4136 68.9049 18.586 79.6566 26.7806 89.4668C26.9945 89.7922 27.2819 90.0626 27.6196 90.2565C27.9573 90.4503 28.3358 90.562 28.7246 90.5827C30.0813 90.5504 31.3847 90.0482 32.4122 89.1617C33.1881 88.4643 33.1096 87.2264 32.1855 85.7444Z" fill="white"/>
<path d="M32.081 73.8621C31.8986 71.3546 31.2075 68.9104 30.0498 66.6787C29.1854 64.9353 28.0854 63.3191 26.7807 61.8753C26.4407 61.4918 26.153 61.3697 25.9787 61.6574C25.8043 61.9451 25.9786 62.3548 26.3099 62.7296L26.6499 63.1219C29.0595 65.9033 30.578 69.3444 31.0087 72.999C31.0045 73.2656 31.0308 73.5318 31.0872 73.7923C31.1967 74.0921 31.3725 74.3633 31.6015 74.5856C31.7846 74.7164 31.9938 74.5856 32.142 74.5856C32.0897 74.2282 32.0984 74.0451 32.081 73.8621Z" fill="white"/>
<path d="M24.1827 66.7049C25.2774 67.909 25.9426 69.4417 26.0744 71.0637C26.1318 71.3103 26.2228 71.5479 26.3447 71.7698C26.8764 72.2057 27.138 72.0575 27.138 71.5083C26.9516 69.4286 26.0915 67.4666 24.6883 65.9203C24.3571 65.5803 24.0868 65.4757 23.9299 65.7634C23.8734 65.9277 23.8673 66.105 23.9124 66.2728C23.9574 66.4405 24.0516 66.591 24.1827 66.7049Z" fill="white"/>
</g>
<path d="M300.171 61.7283L308.339 66.3748V63.4805C308.339 63.28 308.339 63.0708 308.339 62.8703C308.339 62.6698 308.339 62.478 308.339 62.2862V62.1816C308.636 58.3546 311.539 56.8813 315.078 58.9299C316.68 59.9155 318.054 61.2322 319.106 62.7918C319.899 57.5613 324.144 55.7131 329.279 58.6684C334.98 61.9637 339.601 70.0013 339.601 76.557V82.7465C339.593 83.2416 339.715 83.7301 339.955 84.1632C340.195 84.5962 340.545 84.9584 340.969 85.2136L345.782 88.0294C346.82 88.6451 347.681 89.5199 348.28 90.5682C348.879 91.6165 349.196 92.8023 349.199 94.0097C349.199 94.5106 349.067 95.0026 348.817 95.4364C348.566 95.8701 348.206 96.2302 347.772 96.4803C347.338 96.7304 346.846 96.8618 346.345 96.8612C345.844 96.8606 345.352 96.728 344.918 96.4767L300.293 70.6813C299.109 69.9938 298.126 69.0084 297.441 67.8232C296.756 66.638 296.392 65.2941 296.387 63.9251C296.387 63.482 296.503 63.0465 296.724 62.6624C296.945 62.2783 297.263 61.9589 297.646 61.7364C298.029 61.5139 298.464 61.396 298.907 61.3946C299.351 61.3932 299.786 61.5082 300.171 61.7283V61.7283Z" fill="#E6E6E6"/>
<path d="M362.441 60.5166L368.378 63.9252V61.7981C368.378 61.6499 368.378 61.5017 368.378 61.3535C368.378 61.2053 368.378 61.0658 368.378 60.9263V60.874C368.596 58.0931 370.705 57.0208 373.277 58.5116C374.441 59.2251 375.44 60.1792 376.206 61.3099C376.79 57.5265 379.876 56.1578 383.607 58.3111C387.757 60.7084 391.113 66.5318 391.113 71.3178V75.8248C391.116 76.1781 391.211 76.5245 391.388 76.8302C391.566 77.1358 391.819 77.3901 392.124 77.5683L395.611 79.6169C396.37 80.0632 396.999 80.7004 397.435 81.4651C397.871 82.2299 398.099 83.0955 398.096 83.9758C398.095 84.3363 398.001 84.6904 397.822 85.0033C397.643 85.3162 397.385 85.577 397.074 85.7601C396.764 85.9431 396.411 86.042 396.05 86.0471C395.69 86.0522 395.334 85.9632 395.019 85.789L362.528 67.0287C361.667 66.5306 360.952 65.815 360.455 64.9536C359.958 64.0922 359.696 63.1153 359.695 62.1207C359.694 61.7987 359.778 61.4823 359.938 61.203C360.098 60.9236 360.329 60.6911 360.606 60.5288C360.884 60.3664 361.2 60.2798 361.522 60.2777C361.844 60.2756 362.161 60.3579 362.441 60.5166V60.5166Z" fill="#E6E6E6"/>
</svg>
